<svg width="72" height="72" viewBox="0 0 72 72" fill="none" xmlns="http://www.w3.org/2000/svg">
<path d="M72 36C72 55.8823 55.8823 72 36 72C16.1177 72 0 55.8823 0 36C0 16.1177 16.1177 0 36 0C55.8823 0 72 16.1177 72 36Z" fill="#CA1119"/>
<path d="M28.8099 21.3214C24.8215 21.5656 21.3417 23.899 19.6867 27.4262C19.1372 28.5929 18.8252 29.7256 18.6963 31.0009C18.6556 31.435 18.6353 34.623 18.6489 39.595L18.6692 47.4973L18.8184 47.945C19.239 49.166 20.2836 50.1631 21.5859 50.5633C21.9658 50.6786 22.3185 50.6854 26.6054 50.6854C31.6656 50.6854 31.5706 50.6922 32.4389 50.2716C33.3343 49.8375 34.0872 48.9964 34.4331 48.0536L34.6095 47.5652L34.6298 42.8713C34.6502 37.6822 34.6502 37.7026 34.2161 36.8208C33.9447 36.251 33.1443 35.437 32.5745 35.1385C31.7199 34.6909 31.7199 34.6909 28.4029 34.6502C25.4387 34.6095 25.3777 34.6095 25.0996 34.4535C24.7333 34.2635 24.3738 33.904 24.1839 33.5377C23.9736 33.1443 23.9261 31.7267 24.0889 30.9127C24.4077 29.3594 25.5066 27.9213 26.9242 27.2295C27.8535 26.7682 28.2266 26.6936 29.7731 26.6461L31.1026 26.6054L31.3943 26.4019C31.5503 26.2866 31.7538 26.0628 31.842 25.9C31.9912 25.6083 31.998 25.5473 31.998 24.0143C31.998 22.2914 31.9709 22.115 31.6046 21.7352C31.2586 21.3689 31.0891 21.3214 30.0987 21.3078C29.5968 21.301 29.0134 21.3078 28.8099 21.3214Z" fill="white"/>
<path d="M47.5312 21.3282C44.1804 21.4978 40.9923 23.2953 39.1745 26.0289C38.7607 26.6529 38.1027 27.9892 37.8721 28.6743C37.7839 28.9524 37.6347 29.4882 37.5533 29.8613L37.3973 30.5396L37.3702 38.815C37.3566 44.8316 37.3702 47.1989 37.4244 47.4973C37.6483 48.6776 38.4758 49.7425 39.5611 50.2716C40.4294 50.6922 40.3344 50.6854 45.3946 50.6854C49.6815 50.6854 50.0342 50.6786 50.4141 50.5633C51.7164 50.1631 52.761 49.166 53.1816 47.945C53.3308 47.5041 53.3308 47.4499 53.3511 42.912C53.3715 37.9467 53.3647 37.7704 53.0052 36.9971C52.6389 36.1967 51.8114 35.3692 51.0585 35.03C50.3259 34.7044 50.2309 34.6909 47.0903 34.6502C44.1329 34.6095 44.1058 34.6095 43.8005 34.4535C42.8713 33.9651 42.566 33.1782 42.7085 31.6385C42.7424 31.2179 42.8441 30.6617 42.9187 30.404C43.4343 28.7285 44.8723 27.3312 46.5952 26.836C46.9886 26.7275 47.3685 26.6868 48.4537 26.6529C49.7425 26.6054 49.8239 26.5986 50.0546 26.4426C50.353 26.2391 50.5769 25.9068 50.6583 25.5744C50.7397 25.2013 50.7329 22.773 50.6447 22.3592C50.5362 21.8708 50.1292 21.4638 49.6408 21.3553C49.322 21.2875 48.4944 21.2739 47.5312 21.3282Z" fill="white"/>
</svg>
